<svg xmlns="http://www.w3.org/2000/svg" xmlns:xlink="http://www.w3.org/1999/xlink" width="992" height="130" viewBox="0 0 992 130"><defs><linearGradient id="a" x1="0.421" y1="0.5" x2="0.606" y2="0.5" gradientUnits="objectBoundingBox"><stop offset="0" stop-color="#47d2fd"/><stop offset="1" stop-color="#926fca"/></linearGradient><filter id="b" x="0" y="0" width="206" height="130" filterUnits="userSpaceOnUse"><feOffset input="SourceAlpha"/><feGaussianBlur stdDeviation="3" result="c"/><feFlood flood-opacity="0.161"/><feComposite operator="in" in2="c"/><feComposite in="SourceGraphic"/></filter><clipPath id="d"><path d="M48.615,24.809,34.887,38.542,48.615,52.275H32.928L19.194,38.542,32.928,24.809ZM32.928,1.275l-25.5,25.5,7.846,7.846L48.615,1.275Z" transform="translate(-7.43 -1.275)" fill="#fff"/></clipPath><linearGradient id="i" x1="0.293" y1="0.648" x2="0.731" y2="0.619" xlink:href="#a"/></defs><g transform="translate(-545 -204)"><g transform="translate(-151 42)"><g transform="matrix(1, 0, 0, 1, 696, 162)" filter="url(#b)"><rect width="188" height="112" rx="25" transform="translate(9 9)" fill="url(#a)"/></g><g transform="translate(723.57 200.725)"><g transform="translate(7.43 1.275)" clip-path="url(#d)"><path d="M22.2,44.538l7.841,7.846L51.614,30.805H35.926Z" transform="translate(-10.429 -7.271)" fill="#fff"/></g><g transform="translate(7.43 1.275)" clip-path="url(#d)"><path d="M32.928,1.275H48.615L15.276,34.619,7.43,26.773Z" transform="translate(-7.43 -1.275)" fill="#fff"/></g><g transform="translate(7.43 1.275)" clip-path="url(#d)"><path d="M32.037,55.883l5.887,5.882H53.612L39.883,48.037Z" transform="translate(-12.427 -10.771)" fill="#fff"/></g><g transform="translate(7.43 1.275)" clip-path="url(#d)"><path d="M43.674,51.852l-3.791-3.815-7.846,7.846Z" transform="translate(-12.427 -10.771)" fill="#fff"/></g><g transform="translate(7.43 1.275)" clip-path="url(#d)"><path d="M22.2,46.035l7.846-7.846,7.847,7.846-7.847,7.846Z" transform="translate(-10.429 -8.771)" fill="#fff"/></g><path d="M48.615,24.809,34.887,38.542,48.615,52.275H32.928L19.194,38.542,32.928,24.809ZM32.928,1.275l-25.5,25.5,7.846,7.846L48.615,1.275Z" transform="translate(0)" fill="#fff"/></g><g transform="translate(819 202)"><path d="M37.223,35.618a3.84,3.84,0,0,0-.41-7.657h-.137a3.825,3.825,0,0,0-3.692,3.965,3.926,3.926,0,0,0,1.094,2.529c-2.324,4.58-5.879,7.93-11.211,10.733a18.487,18.487,0,0,1-11.143,2.119,9.5,9.5,0,0,1-6.973-4.034,10.042,10.042,0,0,1-.547-10.6,16.092,16.092,0,0,1,4.649-5.469c-.273-.889-.684-2.393-.889-3.487C-1.949,30.9-.923,40.609,2.085,45.189c2.256,3.418,6.836,5.538,11.9,5.538a16.805,16.805,0,0,0,4.1-.479A26.234,26.234,0,0,0,37.223,35.618Zm12.032-8.477c-5.2-6.084-12.852-9.434-21.6-9.434H26.558a3.756,3.756,0,0,0-3.35-2.051h-.137a3.83,3.83,0,0,0,.137,7.657h.137a3.851,3.851,0,0,0,3.35-2.324h1.231a26.055,26.055,0,0,1,14.561,4.444,18.313,18.313,0,0,1,7.246,8.751,9.476,9.476,0,0,1-.137,8.067,10.036,10.036,0,0,1-9.366,5.606,17.484,17.484,0,0,1-6.7-1.436c-.752.684-2.119,1.777-3.076,2.461A21.1,21.1,0,0,0,39.274,51c6.563,0,11.416-3.623,13.262-7.247C54.519,39.788,54.382,32.952,49.255,27.141ZM14.527,36.78a3.84,3.84,0,0,0,3.828,3.692h.137a3.83,3.83,0,0,0-.137-7.657h-.137a1.163,1.163,0,0,0-.479.068,25.05,25.05,0,0,1-3.555-15.177,18.34,18.34,0,0,1,4.033-10.6C20.2,4.58,24.029,3.35,26.627,3.282c7.246-.137,10.323,8.887,10.528,12.511.889.205,2.393.684,3.418,1.025C39.752,5.743,32.916,0,26.353,0,20.2,0,14.527,4.444,12.271,11.007c-3.145,8.751-1.094,17.16,2.734,23.791A3.071,3.071,0,0,0,14.527,36.78Z" transform="translate(0)" fill="#fff"/></g><text transform="translate(808 251) rotate(-90)" fill="#fff" font-size="24" font-family="Quicksand-Bold, Quicksand" font-weight="700"><tspan x="0" y="0">GEN</tspan></text></g><path d="M16.794-43.316V-27.8H35.835a5.374,5.374,0,0,1,3.835,1.455A4.919,4.919,0,0,1,41.212-22.6a4.666,4.666,0,0,1-1.543,3.438,5.286,5.286,0,0,1-3.835,1.5H16.794V2.875A5.064,5.064,0,0,1,15.163,6.71a5.4,5.4,0,0,1-3.835,1.543,5.514,5.514,0,0,1-4.011-1.5A5.168,5.168,0,0,1,5.775,2.875V-48.077a5.206,5.206,0,0,1,1.543-3.835,5.206,5.206,0,0,1,3.835-1.543H39.8A5.374,5.374,0,0,1,43.636-52a4.919,4.919,0,0,1,1.543,3.746,4.666,4.666,0,0,1-1.543,3.438,5.286,5.286,0,0,1-3.835,1.5Zm49.1,46.192A5.206,5.206,0,0,1,64.352,6.71a5.206,5.206,0,0,1-3.835,1.543,4.957,4.957,0,0,1-3.7-1.543,5.286,5.286,0,0,1-1.5-3.835V-51.6a5.206,5.206,0,0,1,1.543-3.835,5.206,5.206,0,0,1,3.835-1.543,4.957,4.957,0,0,1,3.7,1.543,5.286,5.286,0,0,1,1.5,3.835Zm46.9-41.784a5.061,5.061,0,0,1,3.791,1.543,5.286,5.286,0,0,1,1.5,3.835v22.391q0,9.52-5.245,14.9T97.894,9.134q-9.7,0-14.9-5.377t-5.2-14.9V-33.531a5.286,5.286,0,0,1,1.5-3.835,5.061,5.061,0,0,1,3.791-1.543,5.061,5.061,0,0,1,3.791,1.543,5.286,5.286,0,0,1,1.5,3.835v22.391q0,5.377,2.38,7.978t7.14,2.6q4.848,0,7.228-2.6t2.38-7.978V-33.531a5.286,5.286,0,0,1,1.5-3.835A5.061,5.061,0,0,1,112.792-38.909Zm39.492,37.2a2.932,2.932,0,0,1,2.248,1.19,4.66,4.66,0,0,1,1.014,3.129,4.71,4.71,0,0,1-2.6,4.011,10.8,10.8,0,0,1-5.862,1.631,17.089,17.089,0,0,1-9.212-2.336Q134.125,3.581,134.125-4V-28.33H130.07a4.784,4.784,0,0,1-3.526-1.41,4.784,4.784,0,0,1-1.41-3.526,4.534,4.534,0,0,1,1.41-3.394,4.866,4.866,0,0,1,3.526-1.366h4.055v-5.642a5.206,5.206,0,0,1,1.543-3.835,5.206,5.206,0,0,1,3.835-1.543,4.957,4.957,0,0,1,3.7,1.543,5.286,5.286,0,0,1,1.5,3.835v5.642h6.259a4.784,4.784,0,0,1,3.526,1.41,4.784,4.784,0,0,1,1.41,3.526,4.534,4.534,0,0,1-1.41,3.394,4.866,4.866,0,0,1-3.526,1.366H144.7V-4.441a3.374,3.374,0,0,0,.97,2.689,3.911,3.911,0,0,0,2.645.837,7.564,7.564,0,0,0,1.939-.353A5.267,5.267,0,0,1,152.284-1.708Zm36.054,0a2.932,2.932,0,0,1,2.248,1.19A4.66,4.66,0,0,1,191.6,2.611,4.71,4.71,0,0,1,189,6.622a10.8,10.8,0,0,1-5.862,1.631,17.089,17.089,0,0,1-9.212-2.336Q170.179,3.581,170.179-4V-28.33h-4.055a4.784,4.784,0,0,1-3.526-1.41,4.784,4.784,0,0,1-1.41-3.526,4.534,4.534,0,0,1,1.41-3.394,4.866,4.866,0,0,1,3.526-1.366h4.055v-5.642a5.206,5.206,0,0,1,1.543-3.835,5.206,5.206,0,0,1,3.835-1.543,4.957,4.957,0,0,1,3.7,1.543,5.286,5.286,0,0,1,1.5,3.835v5.642h6.259a4.784,4.784,0,0,1,3.526,1.41,4.784,4.784,0,0,1,1.41,3.526,4.534,4.534,0,0,1-1.41,3.394,4.866,4.866,0,0,1-3.526,1.366h-6.259V-4.441a3.374,3.374,0,0,0,.97,2.689,3.911,3.911,0,0,0,2.645.837,7.564,7.564,0,0,0,1.939-.353A5.267,5.267,0,0,1,188.338-1.708ZM243.522-16.43a4.527,4.527,0,0,1-1.675,3.438,5.608,5.608,0,0,1-3.7,1.322h-29.09A13.293,13.293,0,0,0,213.9-3.516a13.554,13.554,0,0,0,8.551,2.953,18.951,18.951,0,0,0,5.642-.661,14.694,14.694,0,0,0,3.218-1.41q1.19-.749,1.631-1.014a6.725,6.725,0,0,1,3-.793,4.328,4.328,0,0,1,3.173,1.322,4.229,4.229,0,0,1,1.322,3.085,5.5,5.5,0,0,1-2.468,4.319,21.061,21.061,0,0,1-6.611,3.438,25.831,25.831,0,0,1-8.374,1.41,26,26,0,0,1-12.914-3.085,21.536,21.536,0,0,1-8.507-8.507,24.807,24.807,0,0,1-3-12.209,27.027,27.027,0,0,1,3.173-13.311,22.532,22.532,0,0,1,8.374-8.771,21.646,21.646,0,0,1,11.107-3.041,20.592,20.592,0,0,1,10.975,3.173,23.722,23.722,0,0,1,8.242,8.551A22.987,22.987,0,0,1,243.522-16.43Zm-22.3-13.664q-10.226,0-12.077,9.609h23.1V-21.1a9.113,9.113,0,0,0-3.614-6.347A11.44,11.44,0,0,0,221.219-30.094Zm55.624-9.7a6.741,6.741,0,0,1,4.452,1.5,4.468,4.468,0,0,1,1.807,3.526,5.461,5.461,0,0,1-1.41,4.1,4.65,4.65,0,0,1-3.35,1.366,8.8,8.8,0,0,1-3-.617q-.264-.088-1.19-.353a7.191,7.191,0,0,0-1.983-.264,7.834,7.834,0,0,0-4.408,1.41,10.291,10.291,0,0,0-3.482,4.275,15.741,15.741,0,0,0-1.366,6.832V2.875a5.286,5.286,0,0,1-1.5,3.835,5.428,5.428,0,0,1-7.581,0,5.286,5.286,0,0,1-1.5-3.835V-33.531a5.286,5.286,0,0,1,1.5-3.835,5.061,5.061,0,0,1,3.791-1.543,5.061,5.061,0,0,1,3.791,1.543,5.286,5.286,0,0,1,1.5,3.835v1.146a13.355,13.355,0,0,1,5.818-5.51A17.887,17.887,0,0,1,276.843-39.79Zm87.712,39.4a5.192,5.192,0,0,1,1.807,1.851,4.7,4.7,0,0,1,.661,2.38,4.552,4.552,0,0,1-1.058,2.909,4.979,4.979,0,0,1-4.055,1.587,7.915,7.915,0,0,1-3.879-.97q-6.347-3.614-6.347-14.721a6.4,6.4,0,0,0-2.072-5.025,8.644,8.644,0,0,0-5.95-1.851H327.178v17.1A5.768,5.768,0,0,1,325.9,6.754a4.239,4.239,0,0,1-3.394,1.5,6.838,6.838,0,0,1-4.452-1.543,4.756,4.756,0,0,1-1.9-3.835V-48.077a5.206,5.206,0,0,1,1.543-3.835,5.206,5.206,0,0,1,3.835-1.543h25.388a16.339,16.339,0,0,1,8.639,2.468,18.218,18.218,0,0,1,6.479,6.788,19.468,19.468,0,0,1,2.424,9.7,17.188,17.188,0,0,1-2.38,8.595,18.966,18.966,0,0,1-6.171,6.655A13.506,13.506,0,0,1,362-8.849a14.821,14.821,0,0,1,.264,2.733,28.084,28.084,0,0,0,.705,3.923A2.907,2.907,0,0,0,364.555-.386Zm-18.071-22.92a4.389,4.389,0,0,0,3.085-1.5,11.376,11.376,0,0,0,2.468-4.011,14.927,14.927,0,0,0,.97-5.421,10.575,10.575,0,0,0-.97-4.54,9.3,9.3,0,0,0-2.468-3.306,4.818,4.818,0,0,0-3.085-1.234H327.178v20.011Zm71.227,6.876a4.526,4.526,0,0,1-1.675,3.438,5.608,5.608,0,0,1-3.7,1.322h-29.09a13.293,13.293,0,0,0,4.848,8.154,13.555,13.555,0,0,0,8.551,2.953,18.951,18.951,0,0,0,5.642-.661,14.694,14.694,0,0,0,3.218-1.41q1.19-.749,1.631-1.014a6.725,6.725,0,0,1,3-.793A4.328,4.328,0,0,1,413.3-3.119a4.229,4.229,0,0,1,1.322,3.085,5.5,5.5,0,0,1-2.468,4.319,21.061,21.061,0,0,1-6.611,3.438,25.83,25.83,0,0,1-8.374,1.41,26,26,0,0,1-12.914-3.085,21.536,21.536,0,0,1-8.507-8.507,24.807,24.807,0,0,1-3-12.209,27.027,27.027,0,0,1,3.174-13.311,22.532,22.532,0,0,1,8.374-8.771,21.646,21.646,0,0,1,11.107-3.041,20.592,20.592,0,0,1,10.975,3.173,23.722,23.722,0,0,1,8.242,8.551A22.987,22.987,0,0,1,417.711-16.43Zm-22.3-13.664q-10.226,0-12.077,9.609h23.1V-21.1a9.113,9.113,0,0,0-3.614-6.347A11.44,11.44,0,0,0,395.408-30.094ZM464.7-56.98a5.137,5.137,0,0,1,3.791,1.5,5.248,5.248,0,0,1,1.5,3.879V2.875a5.286,5.286,0,0,1-1.5,3.835A5.061,5.061,0,0,1,464.7,8.253a4.992,4.992,0,0,1-3.746-1.5,5.544,5.544,0,0,1-1.543-3.791,18.088,18.088,0,0,1-5.95,4.364,17.937,17.937,0,0,1-7.89,1.807A20.154,20.154,0,0,1,434.548,6a21.941,21.941,0,0,1-7.8-8.683,27.1,27.1,0,0,1-2.865-12.606,27.717,27.717,0,0,1,2.821-12.65,21.674,21.674,0,0,1,7.713-8.727,19.633,19.633,0,0,1,10.8-3.129,20.419,20.419,0,0,1,7.934,1.543,20.834,20.834,0,0,1,6.259,3.923V-51.6a5.286,5.286,0,0,1,1.5-3.835A5.061,5.061,0,0,1,464.7-56.98ZM446.889-.563a11.771,11.771,0,0,0,9.344-4.187,15.548,15.548,0,0,0,3.614-10.534,15.717,15.717,0,0,0-3.614-10.578,11.719,11.719,0,0,0-9.344-4.231,11.626,11.626,0,0,0-9.256,4.231,15.717,15.717,0,0,0-3.614,10.578,15.668,15.668,0,0,0,3.57,10.534A11.642,11.642,0,0,0,446.889-.563Zm70.963-38.346a5.061,5.061,0,0,1,3.791,1.543,5.286,5.286,0,0,1,1.5,3.835v22.391q0,9.52-5.245,14.9T502.954,9.134q-9.7,0-14.9-5.377t-5.2-14.9V-33.531a5.286,5.286,0,0,1,1.5-3.835,5.061,5.061,0,0,1,3.791-1.543,5.061,5.061,0,0,1,3.791,1.543,5.286,5.286,0,0,1,1.5,3.835v22.391q0,5.377,2.38,7.978t7.14,2.6q4.848,0,7.228-2.6t2.38-7.978V-33.531a5.286,5.286,0,0,1,1.5-3.835A5.061,5.061,0,0,1,517.852-38.909ZM569.333-.122a4.9,4.9,0,0,1,1.146,3.173A5.042,5.042,0,0,1,568.8,6.842a5.17,5.17,0,0,1-8.022-.705L550.2-7,539.89,6.137a5.566,5.566,0,0,1-1.9,1.631,4.993,4.993,0,0,1-2.336.573,5.405,5.405,0,0,1-3.526-1.41,4.177,4.177,0,0,1-1.675-3.262A5.161,5.161,0,0,1,531.78.319l12.253-14.986L531.339-30.446a4.9,4.9,0,0,1-1.146-3.173,4.965,4.965,0,0,1,1.631-3.746,5.3,5.3,0,0,1,3.747-1.543,5.346,5.346,0,0,1,4.319,2.2l10.843,13.487,10.049-13.311a5.008,5.008,0,0,1,4.231-2.38,4.854,4.854,0,0,1,3.57,1.455,4.556,4.556,0,0,1,1.455,3.306,5.255,5.255,0,0,1-1.234,3.438L556.639-15.9Zm79.249-24.947a5.061,5.061,0,0,1,3.791,1.543,5.286,5.286,0,0,1,1.5,3.835V-1a5.287,5.287,0,0,1-2.733,4.76,35.171,35.171,0,0,1-18.953,5.377,31.7,31.7,0,0,1-16.132-4.275A32.024,32.024,0,0,1,604.329-6.689,30.592,30.592,0,0,1,600.01-22.6a30.592,30.592,0,0,1,4.319-15.912A32.024,32.024,0,0,1,616.054-50.06a31.7,31.7,0,0,1,16.132-4.275,31.077,31.077,0,0,1,15.162,3.526,4.851,4.851,0,0,1,1.983,1.851,4.857,4.857,0,0,1,.661,2.468,5.575,5.575,0,0,1-1.455,3.835,4.6,4.6,0,0,1-3.57,1.631,7.233,7.233,0,0,1-2.909-.705,24.95,24.95,0,0,0-9.873-2.028,19.8,19.8,0,0,0-10.4,2.865,21.083,21.083,0,0,0-7.537,7.713A20.917,20.917,0,0,0,611.47-22.6a20.917,20.917,0,0,0,2.777,10.578,21.083,21.083,0,0,0,7.537,7.713,19.8,19.8,0,0,0,10.4,2.865,34.361,34.361,0,0,0,5.289-.441,30.724,30.724,0,0,0,4.937-1.146v-11.46h-8.286a5.287,5.287,0,0,1-3.835-1.5,5.061,5.061,0,0,1-1.543-3.791,5.061,5.061,0,0,1,1.543-3.791,5.287,5.287,0,0,1,3.835-1.5Zm57.3,8.639a4.526,4.526,0,0,1-1.675,3.438,5.608,5.608,0,0,1-3.7,1.322h-29.09a13.293,13.293,0,0,0,4.848,8.154,13.555,13.555,0,0,0,8.551,2.953,18.95,18.95,0,0,0,5.642-.661,14.692,14.692,0,0,0,3.218-1.41q1.19-.749,1.631-1.014a6.725,6.725,0,0,1,3-.793,4.328,4.328,0,0,1,3.173,1.322A4.228,4.228,0,0,1,702.8-.034a5.5,5.5,0,0,1-2.468,4.319,21.061,21.061,0,0,1-6.611,3.438,25.831,25.831,0,0,1-8.374,1.41,26,26,0,0,1-12.914-3.085,21.536,21.536,0,0,1-8.507-8.507,24.807,24.807,0,0,1-3-12.209A27.027,27.027,0,0,1,664.1-27.978a22.533,22.533,0,0,1,8.374-8.771,21.646,21.646,0,0,1,11.107-3.041,20.592,20.592,0,0,1,10.975,3.173,23.722,23.722,0,0,1,8.242,8.551A22.986,22.986,0,0,1,705.881-16.43Zm-22.3-13.664q-10.226,0-12.077,9.609h23.1V-21.1a9.113,9.113,0,0,0-3.614-6.347A11.44,11.44,0,0,0,683.578-30.094Zm56.329-9.7q8.991,0,12.43,5.333t3.438,14.766V2.875a5.286,5.286,0,0,1-1.5,3.835,5.428,5.428,0,0,1-7.581,0,5.286,5.286,0,0,1-1.5-3.835V-19.692a12.7,12.7,0,0,0-2.028-7.625q-2.028-2.777-6.964-2.777a10.748,10.748,0,0,0-8.022,2.953,10.179,10.179,0,0,0-2.909,7.449V2.875a5.286,5.286,0,0,1-1.5,3.835,5.428,5.428,0,0,1-7.581,0,5.286,5.286,0,0,1-1.5-3.835V-33.531a5.286,5.286,0,0,1,1.5-3.835,5.061,5.061,0,0,1,3.791-1.543,5.06,5.06,0,0,1,3.79,1.543,5.286,5.286,0,0,1,1.5,3.835v1.5a21.29,21.29,0,0,1,6.215-5.465A16.105,16.105,0,0,1,739.908-39.79Z" transform="translate(781.225 293)" fill="url(#i)"/></g></svg>