<svg xmlns="http://www.w3.org/2000/svg" xmlns:xlink="http://www.w3.org/1999/xlink" width="206" height="130" viewBox="0 0 206 130"><defs><filter id="a" x="0" y="0" width="206" height="130" filterUnits="userSpaceOnUse"><feOffset input="SourceAlpha"/><feGaussianBlur stdDeviation="3" result="b"/><feFlood flood-opacity="0.161"/><feComposite operator="in" in2="b"/><feComposite in="SourceGraphic"/></filter><clipPath id="c"><path d="M48.615,24.809,34.887,38.542,48.615,52.275H32.928L19.194,38.542,32.928,24.809ZM32.928,1.275l-25.5,25.5,7.846,7.846L48.615,1.275Z" transform="translate(-7.43 -1.275)" fill="#fff"/></clipPath></defs><g transform="translate(-346 -132)"><g transform="matrix(1, 0, 0, 1, 346, 132)" filter="url(#a)"><rect width="188" height="112" rx="25" transform="translate(9 9)"/></g><g transform="translate(373.57 170.725)"><g transform="translate(7.43 1.275)" clip-path="url(#c)"><path d="M22.2,44.538l7.841,7.846L51.614,30.805H35.926Z" transform="translate(-10.429 -7.271)" fill="#fff"/></g><g transform="translate(7.43 1.275)" clip-path="url(#c)"><path d="M32.928,1.275H48.615L15.276,34.619,7.43,26.773Z" transform="translate(-7.43 -1.275)" fill="#fff"/></g><g transform="translate(7.43 1.275)" clip-path="url(#c)"><path d="M32.037,55.883l5.887,5.882H53.612L39.883,48.037Z" transform="translate(-12.427 -10.771)" fill="#fff"/></g><g transform="translate(7.43 1.275)" clip-path="url(#c)"><path d="M43.674,51.852l-3.791-3.815-7.846,7.846Z" transform="translate(-12.427 -10.771)" fill="#fff"/></g><g transform="translate(7.43 1.275)" clip-path="url(#c)"><path d="M22.2,46.035l7.846-7.846,7.847,7.846-7.847,7.846Z" transform="translate(-10.429 -8.771)" fill="#fff"/></g><path d="M48.615,24.809,34.887,38.542,48.615,52.275H32.928L19.194,38.542,32.928,24.809ZM32.928,1.275l-25.5,25.5,7.846,7.846L48.615,1.275Z" transform="translate(0)" fill="#fff"/></g><g transform="translate(469 172)"><path d="M37.223,35.618a3.84,3.84,0,0,0-.41-7.657h-.137a3.825,3.825,0,0,0-3.692,3.965,3.926,3.926,0,0,0,1.094,2.529c-2.324,4.58-5.879,7.93-11.211,10.733a18.487,18.487,0,0,1-11.143,2.119,9.5,9.5,0,0,1-6.973-4.034,10.042,10.042,0,0,1-.547-10.6,16.092,16.092,0,0,1,4.649-5.469c-.273-.889-.684-2.393-.889-3.487C-1.949,30.9-.923,40.609,2.085,45.189c2.256,3.418,6.836,5.538,11.9,5.538a16.805,16.805,0,0,0,4.1-.479A26.234,26.234,0,0,0,37.223,35.618Zm12.032-8.477c-5.2-6.084-12.852-9.434-21.6-9.434H26.558a3.756,3.756,0,0,0-3.35-2.051h-.137a3.83,3.83,0,0,0,.137,7.657h.137a3.851,3.851,0,0,0,3.35-2.324h1.231a26.055,26.055,0,0,1,14.561,4.444,18.313,18.313,0,0,1,7.246,8.751,9.476,9.476,0,0,1-.137,8.067,10.036,10.036,0,0,1-9.366,5.606,17.484,17.484,0,0,1-6.7-1.436c-.752.684-2.119,1.777-3.076,2.461A21.1,21.1,0,0,0,39.274,51c6.563,0,11.416-3.623,13.262-7.247C54.519,39.788,54.382,32.952,49.255,27.141ZM14.527,36.78a3.84,3.84,0,0,0,3.828,3.692h.137a3.83,3.83,0,0,0-.137-7.657h-.137a1.163,1.163,0,0,0-.479.068,25.05,25.05,0,0,1-3.555-15.177,18.34,18.34,0,0,1,4.033-10.6C20.2,4.58,24.029,3.35,26.627,3.282c7.246-.137,10.323,8.887,10.528,12.511.889.205,2.393.684,3.418,1.025C39.752,5.743,32.916,0,26.353,0,20.2,0,14.527,4.444,12.271,11.007c-3.145,8.751-1.094,17.16,2.734,23.791A3.071,3.071,0,0,0,14.527,36.78Z" transform="translate(0)" fill="#fff"/></g><text transform="translate(458 221) rotate(-90)" fill="#fff" font-size="24" font-family="Quicksand-Bold, Quicksand" font-weight="700"><tspan x="0" y="0">GEN</tspan></text></g></svg>